<svg width="18" height="16" xmlns="http://www.w3.org/2000/svg" xmlns:svg="http://www.w3.org/2000/svg">
 <!-- Generator: Sketch 52.5 (67469) - http://www.bohemiancoding.com/sketch -->

 <title>store_mall_directory</title>
 <desc>Created with Sketch.</desc>
 <g class="layer">
  <title>Layer 1</title>
  <g id="Icons" fill="none" fill-rule="evenodd">
   <g id="Rounded" transform="translate(-613.000000, -3170.000000)">
    <g id="Maps" transform="translate(100.000000, 3068.000000)">
     <g id="-Round-/-Maps-/-store_mall_directory" transform="translate(510.000000, 98.000000)">
      <g id="svg_1">
       <polygon id="Path" points="0 0 24 0 24 24 0 24"/>
       <path d="m20.16,7.8c-0.09,-0.46 -0.5,-0.8 -0.98,-0.8l-14.36,0c-0.48,0 -0.89,0.34 -0.98,0.8l-0.84,4.2l0,1c0,0.55 0.45,1 1,1l0,5c0,0.55 0.45,1 1,1l8,0c0.55,0 1,-0.45 1,-1l0,-5l4,0l0,5c0,0.55 0.45,1 1,1c0.55,0 1,-0.45 1,-1l0,-5c0.55,0 1,-0.45 1,-1l0,-1l-0.84,-4.2zm-8.16,10.2l-6,0l0,-4l6,0l0,4zm-7,-12l14,0c0.55,0 1,-0.45 1,-1c0,-0.55 -0.45,-1 -1,-1l-14,0c-0.55,0 -1,0.45 -1,1c0,0.55 0.45,1 1,1z" id="🔹-Icon-Color" fill="#9356dc"/>
      </g>
     </g>
    </g>
   </g>
  </g>
 </g>
</svg>