<?xml version="1.0" encoding="UTF-8" standalone="no"?>
<svg
   xmlns:dc="http://purl.org/dc/elements/1.1/"
   xmlns:cc="http://creativecommons.org/ns#"
   xmlns:rdf="http://www.w3.org/1999/02/22-rdf-syntax-ns#"
   xmlns:svg="http://www.w3.org/2000/svg"
   xmlns="http://www.w3.org/2000/svg"
   xmlns:sodipodi="http://sodipodi.sourceforge.net/DTD/sodipodi-0.dtd"
   xmlns:inkscape="http://www.inkscape.org/namespaces/inkscape"
   width="20px"
   height="20px"
   viewBox="0 0 20 20"
   version="1.1"
   id="svg42"
   sodipodi:docname="checkmark.svg"
   inkscape:version="1.0 (4035a4fb49, 2020-05-01)">
  <metadata
     id="metadata48">
    <rdf:RDF>
      <cc:Work
         rdf:about="">
        <dc:format>image/svg+xml</dc:format>
        <dc:type
           rdf:resource="http://purl.org/dc/dcmitype/StillImage" />
        <dc:title>check_circle</dc:title>
      </cc:Work>
    </rdf:RDF>
  </metadata>
  <defs
     id="defs46" />
  <sodipodi:namedview
     inkscape:document-rotation="0"
     pagecolor="#ffffff"
     bordercolor="#666666"
     borderopacity="1"
     objecttolerance="10"
     gridtolerance="10"
     guidetolerance="10"
     inkscape:pageopacity="0"
     inkscape:pageshadow="2"
     inkscape:window-width="1920"
     inkscape:window-height="1017"
     id="namedview44"
     showgrid="false"
     inkscape:zoom="42.5"
     inkscape:cx="5.4705882"
     inkscape:cy="12.858439"
     inkscape:window-x="-8"
     inkscape:window-y="-8"
     inkscape:window-maximized="1"
     inkscape:current-layer="svg42" />
  <!-- Generator: Sketch 52.5 (67469) - http://www.bohemiancoding.com/sketch -->
  <title
     id="title30">check_circle</title>
  <desc
     id="desc32">Created with Sketch.</desc>
  <g
     id="Icons"
     stroke="none"
     stroke-width="1"
     fill="none"
     fill-rule="evenodd">
    <g
       id="Rounded"
       transform="translate(-646.000000, -200.000000)">
      <g
         id="Action"
         transform="translate(100.000000, 100.000000)">
        <g
           id="-Round-/-Action-/-check_circle"
           transform="translate(544.000000, 98.000000)">
          <g
             id="g36">
            <polygon
               id="Path"
               points="0 0 24 0 24 24 0 24" />
            <path
               d="M12,2 C6.48,2 2,6.48 2,12 C2,17.52 6.48,22 12,22 C17.52,22 22,17.52 22,12 C22,6.48 17.52,2 12,2 Z M9.29,16.29 L5.7,12.7 C5.31,12.31 5.31,11.68 5.7,11.29 C6.09,10.9 6.72,10.9 7.11,11.29 L10,14.17 L16.88,7.29 C17.27,6.9 17.9,6.9 18.29,7.29 C18.68,7.68 18.68,8.31 18.29,8.7 L10.7,16.29 C10.32,16.68 9.68,16.68 9.29,16.29 Z"
               id="🔹Icon-Color"
               fill="#1D1D1D" />
          </g>
        </g>
      </g>
    </g>
  </g>
  <path
     style="fill:#99e2d0;stroke:#ffffff;stroke-width:0;stroke-miterlimit:0;fill-opacity:1;stroke-opacity:1"
     d="M 9.5647059,19.974884 C 5.4661976,19.80916 1.8452984,17.082854 0.53261061,13.174293 0.14138339,12.009404 -0.01897679,10.867401 0.02740405,9.5764706 0.15464083,6.0350555 2.2377487,2.7732329 5.4234254,1.1271408 6.9791438,0.32327536 8.6365256,-0.04084701 10.429412,0.02733899 c 3.281731,0.12480888 6.309264,1.90130251 8.06976,4.73516711 0.639145,1.0288294 1.101532,2.2275395 1.32143,3.4257292 0.126062,0.6868892 0.144137,0.9163438 0.143644,1.8235297 -5.06e-4,0.930733 -0.02768,1.234725 -0.175637,1.964706 -0.79673,3.930869 -3.881778,7.015902 -7.812138,7.812101 -0.451701,0.0915 -1.015353,0.162298 -1.409537,0.177037 -0.175931,0.0066 -0.383405,0.01499 -0.461052,0.01871 -0.07765,0.0037 -0.3211761,-5.34e-4 -0.5411761,-0.0094 z m -1.2807412,-5.42451 c 0.07029,-0.02082 0.1701529,-0.06282 0.2219177,-0.09333 0.051765,-0.0305 1.8581576,-1.821409 4.0142056,-3.979785 3.133433,-3.1368166 3.930047,-3.9463267 3.969719,-4.0339811 0.08194,-0.1810477 0.105703,-0.3153536 0.09269,-0.5239204 -0.04561,-0.7311047 -0.809086,-1.145889 -1.48838,-0.808616 -0.06186,0.030714 -1.293651,1.2454221 -3.593996,3.544156 L 8.0002435,12.152327 6.5118866,10.667372 C 5.6151235,9.77266 4.9812125,9.1582016 4.9170671,9.1214925 4.3040567,8.7706812 3.5278953,9.1414948 3.4100852,9.8414581 c -0.032624,0.1938319 -0.0057,0.3760339 0.086948,0.5884809 0.059503,0.136439 0.1936892,0.276658 1.9481419,2.03574 1.0363304,1.039065 1.9346577,1.921721 1.9962828,1.961457 0.2364706,0.152478 0.5761113,0.202159 0.8425068,0.123238 z"
     id="path50" />
  <path
     style="fill:#ffffff;fill-opacity:1;stroke:#ffffff;stroke-width:0;stroke-miterlimit:0;stroke-opacity:1"
     d="M 9.3280699,19.952991 C 7.976904,19.85239 6.7168553,19.505046 5.5275722,18.905348 2.6136539,17.436001 0.57834828,14.61079 0.12913144,11.411765 -0.01038968,10.418187 0.00796136,9.2571042 0.17877807,8.2705882 0.63464285,5.6378372 2.2087059,3.22534 4.4513471,1.72221 6.8053972,0.14440812 9.6926605,-0.35739734 12.447059,0.33255776 c 2.15901,0.54081511 4.142397,1.86138394 5.510748,3.66913944 0.904794,1.1953404 1.521942,2.5733324 1.828044,4.0817256 0.139597,0.6879 0.143561,0.7404911 0.143561,1.9048125 0,1.1394827 -0.0046,1.2080567 -0.12032,1.8117647 -0.359105,1.872702 -1.194755,3.54574 -2.464721,4.934562 -1.510704,1.652093 -3.622629,2.788515 -5.786038,3.113454 -0.688144,0.103358 -1.6462812,0.148456 -2.2302631,0.104975 z M 8.4199341,14.51115 C 8.5431127,14.454224 8.9036758,14.102078 11.864172,11.147313 13.682833,9.3321734 15.470501,7.536528 15.836768,7.1569904 16.56445,6.4029426 16.565765,6.4010927 16.592092,6.0941176 16.630222,5.6495054 16.410208,5.2599141 16.01702,5.0758078 15.800311,4.974336 15.507577,4.9581231 15.258446,5.0337944 l -0.168047,0.051043 -0.745199,0.72628 C 13.93534,6.2105708 12.340026,7.7982381 10.800057,9.3392666 L 8.0001146,12.141136 6.6824101,10.827842 C 4.9542388,9.1054548 4.9489231,9.1005127 4.7551188,9.0360188 4.5823421,8.9785224 4.3136642,8.9684866 4.1471984,9.0133111 3.8699962,9.0879539 3.6310635,9.2830758 3.5057555,9.5371386 3.3588619,9.8349664 3.3504492,10.125692 3.4804165,10.41281 c 0.078771,0.174017 0.3928007,0.502315 2.2521849,2.354513 1.93312,1.925649 1.8049572,1.825252 2.3144574,1.813046 0.1986934,-0.0048 0.2566953,-0.01553 0.3728753,-0.06922 z"
     id="path877" />
  <path
     id="path863"
     d="M 9.1294117,19.926708 C 4.6327374,19.504702 0.95171895,16.116856 0.18734872,11.69683 0.03440003,10.812393 0.01147577,9.5924009 0.13048413,8.6705882 0.49338404,5.8596452 2.1581892,3.2304642 4.5664964,1.664916 5.8621275,0.82267602 7.2143614,0.32689419 8.7882353,0.11706141 9.2619138,0.05390942 10.236518,0.02942809 10.729412,0.06830052 c 1.924841,0.151804 3.696925,0.81562383 5.211018,1.95203918 2.026225,1.5208005 3.338535,3.6163031 3.848746,6.1456942 0.111817,0.5543348 0.12804,0.7863256 0.12825,1.8339661 2.12e-4,1.051218 -0.01542,1.26047 -0.140624,1.882353 -0.392718,1.950631 -1.280889,3.646813 -2.64739,5.055847 -1.57162,1.620536 -3.750877,2.704142 -5.917647,2.942468 -0.647417,0.07121 -1.5916862,0.09209 -2.0823533,0.04604 z m -0.795636,-5.373749 c 0.095781,-0.02844 0.1752177,-0.08648 0.410153,-0.299661 C 9.1192828,13.9127 15.629095,7.4047405 16.100939,6.8983805 16.556943,6.4090195 16.580567,6.3695158 16.594872,6.0724449 16.6124,5.7084487 16.526262,5.4798193 16.28598,5.2525704 16.078302,5.0561567 15.897513,4.9863374 15.592879,4.9849002 c -0.09961,-4.706e-4 -0.254594,0.017762 -0.344402,0.040516 l -0.163288,0.041371 -0.895536,0.882777 c -0.492544,0.4855273 -2.086863,2.0721044 -3.54293,3.525727 L 7.9993277,12.118241 7.8349581,11.951027 C 7.7445546,11.859058 7.0662628,11.188256 6.3276428,10.460355 4.8576263,9.0116708 4.876384,9.0272904 4.5587541,8.9874073 4.2241282,8.9453901 3.94222,9.0353111 3.7079131,9.2588021 3.4797378,9.4764442 3.3566122,9.7896247 3.383984,10.082743 c 0.022251,0.238285 0.089722,0.377745 0.3017418,0.623696 0.250593,0.290696 3.3373902,3.372416 3.5970198,3.591103 0.3100139,0.261126 0.3793012,0.290693 0.6811941,0.290693 0.1545894,0 0.2966894,-0.01355 0.369836,-0.03528 z"
     style="fill:#ffffff;stroke:#ffffff;stroke-width:0;stroke-miterlimit:0" />
  <path
     id="path865"
     d="M 9.0235294,19.917578 C 7.759011,19.774086 6.698524,19.466075 5.6117647,18.926654 3.6032847,17.929731 2.0410339,16.364394 1.0588094,14.364706 0.50433022,13.235854 0.19245265,12.124736 0.08254274,10.886584 0.05071508,10.528041 0.05090668,9.5043699 0.08287194,9.1277539 0.42135488,5.1397339 3.1950306,1.6967343 7.0352941,0.49762249 7.6376348,0.30954327 8.2341157,0.18183283 8.8823529,0.10215528 9.3087475,0.04974533 10.607441,0.04179365 11.011765,0.08911725 12.345051,0.24517039 13.544598,0.60670828 14.6,1.1705954 c 2.631592,1.4060239 4.451366,3.7707227 5.115447,6.6472486 0.192828,0.8352532 0.190317,0.8066264 0.190379,2.1703913 7.1e-5,1.3535167 0.0014,1.3377727 -0.180952,2.1529407 -0.657163,2.937951 -2.592798,5.415227 -5.283252,6.761645 -1.113717,0.557352 -2.132119,0.859214 -3.347504,0.992226 -0.484057,0.05297 -1.6869491,0.06606 -2.0705886,0.02253 z M 8.3953626,14.531331 C 8.5550468,14.453244 9.0843722,13.936389 12.42671,10.594965 15.844742,7.1778661 16.445817,6.5609188 16.533561,6.3796642 16.63315,6.1739414 16.618476,5.7876221 16.501508,5.5357944 16.429023,5.3797372 16.195901,5.1527087 16.023529,5.0703106 15.833391,4.9794193 15.506827,4.9609285 15.252524,5.0266546 l -0.169986,0.043934 -1.058916,1.0455299 c -0.582404,0.575041 -2.175975,2.159954 -3.541269,3.5220283 L 8,12.114646 6.717647,10.844568 C 5.293291,9.4338459 4.971299,9.1303576 4.8224934,9.0583221 4.6959009,8.9970398 4.4285764,8.9670282 4.2387011,8.9927824 c -0.597159,0.080996 -1.0151745,0.7841065 -0.799083,1.3440736 0.020893,0.05414 0.080097,0.155341 0.1315647,0.224889 0.2463165,0.332849 3.5778198,3.654372 3.8784663,3.866848 0.2095457,0.148093 0.2511652,0.159145 0.5738803,0.152398 0.2186219,-0.0046 0.3025499,-0.01578 0.3718332,-0.04966 z"
     style="fill:#ffffff;stroke:#ffffff;stroke-width:0;stroke-miterlimit:0" />
  <path
     id="path867"
     d="M 9.2117647,19.938003 C 7.1145367,19.740869 5.2326016,18.966292 3.6235294,17.637967 3.0548687,17.168525 2.3670437,16.428055 1.9058504,15.788821 0.87404159,14.358688 0.23059902,12.631187 0.08280994,10.89436 0.04633068,10.465654 0.05207124,9.4412805 0.09336403,9.0110374 0.307469,6.7802066 1.2828366,4.6955402 2.8821094,3.0506139 3.3694571,2.5493539 3.8373138,2.1569494 4.4117647,1.7676488 5.7616042,0.85287372 7.2264915,0.30702395 8.8823529,0.10180758 9.1511176,0.06849869 9.3933226,0.05963928 10.023529,0.06006544 c 0.861925,5.8285e-4 1.207134,0.03083491 1.894118,0.16598936 1.986218,0.39076033 3.802163,1.3823457 5.235866,2.8590127 1.352302,1.3928266 2.229675,3.0802699 2.63507,5.0680064 0.117924,0.5782037 0.135209,0.8666026 0.122976,2.0518251 -0.01146,1.110473 -0.01739,1.175547 -0.169824,1.865689 -0.666802,3.01884 -2.587618,5.480178 -5.352573,6.858797 -1.06403,0.53053 -2.107746,0.836458 -3.295044,0.965826 -0.326571,0.03558 -1.6411211,0.06547 -1.8823533,0.04279 z M 8.4044298,14.522242 C 8.458631,14.494121 8.6915722,14.2921 8.9220769,14.073306 9.5309376,13.495378 16.112775,6.8963614 16.322623,6.6534447 16.539561,6.4023193 16.576712,6.3271424 16.593488,6.1053308 16.617286,5.7906593 16.535591,5.5316918 16.343993,5.3144525 16.086796,5.0228348 15.69703,4.921008 15.250515,5.0287802 l -0.167984,0.040545 -1.317736,1.3060212 C 13.04004,7.0936579 11.450277,8.6753962 10.231987,9.8903207 9.0136981,11.105245 8.009439,12.099151 8.0003007,12.099 7.9911623,12.098859 7.3906388,11.513307 6.665804,10.797793 5.1820818,9.3331518 4.9621531,9.1261659 4.8117647,9.0528633 4.6480124,8.9730471 4.2720204,8.9643238 4.0752654,9.0357758 3.802647,9.1347776 3.6149889,9.3054442 3.4902868,9.5677873 3.3512583,9.8602692 3.3486564,10.159692 3.4828418,10.424494 c 0.087744,0.173154 0.4223132,0.523221 2.0490464,2.14396 1.682364,1.676164 1.8670388,1.850491 2.0681118,1.95223 0.1382014,0.06993 0.1471268,0.07124 0.4235294,0.06206 0.2317892,-0.0077 0.3000007,-0.01853 0.3809004,-0.0605 z"
     style="fill:#ffffff;stroke:#ffffff;stroke-width:0;stroke-miterlimit:0" />
  <path
     id="path869"
     d=""
     style="fill:#ffffff;stroke:#ffffff;stroke-width:0;stroke-miterlimit:0" />
  <path
     id="path871"
     d=""
     style="fill:#ffffff;stroke:#ffffff;stroke-width:0;stroke-miterlimit:0" />
</svg>
